<?xml version="1.0" encoding="UTF-8" standalone="no"?>
<svg
   xmlns:dc="http://purl.org/dc/elements/1.1/"
   xmlns:cc="http://creativecommons.org/ns#"
   xmlns:rdf="http://www.w3.org/1999/02/22-rdf-syntax-ns#"
   xmlns:svg="http://www.w3.org/2000/svg"
   xmlns="http://www.w3.org/2000/svg"
   viewBox="0 0 816 1056"
   height="1056"
   width="816"
   xml:space="preserve"
   id="svg2"
   version="1.1"><metadata
     id="metadata8"><rdf:RDF><cc:Work
         rdf:about=""><dc:format>image/svg+xml</dc:format><dc:type
           rdf:resource="http://purl.org/dc/dcmitype/StillImage" /></cc:Work></rdf:RDF></metadata><defs
     id="defs6"><clipPath
       id="clipPath18"
       clipPathUnits="userSpaceOnUse"><path
         id="path16"
         d="M 0,792 H 612 V 0 H 0 Z" /></clipPath></defs><g
     transform="matrix(1.3333333,0,0,-1.3333333,0,1056)"
     id="g10"><g
       id="g12"><g
         clip-path="url(#clipPath18)"
         id="g14"><g
           transform="translate(561.7402,437.231)"
           id="g20"><path
             id="path22"
             style="fill:#aaacae;fill-opacity:1;fill-rule:nonzero;stroke:none"
             d="M 0,0 C 0,-12.486 -10.121,-22.611 -22.605,-22.611 H -488.87 c -12.485,0 -22.61,10.125 -22.61,22.611 v 122.089 c 0,12.486 10.125,22.611 22.61,22.611 H -22.605 C -10.121,144.7 0,134.575 0,122.089 Z" /></g><path
           id="path24"
           style="fill:#ffffff;fill-opacity:1;fill-rule:nonzero;stroke:none"
           d="M 140.539,464.546 H 94.992 v 68.084 h 45.547 z m -22.773,-14.978 c -3.326,0 -6.021,2.695 -6.021,6.024 0,3.325 2.695,6.02 6.021,6.02 3.328,0 6.024,-2.695 6.024,-6.02 0,-3.329 -2.696,-6.024 -6.024,-6.024 m 20.831,103.75 H 96.934 c -4.992,0 -9.041,-4.047 -9.041,-9.041 v -92.304 c 0,-4.995 4.049,-9.044 9.041,-9.044 h 41.663 c 4.995,0 9.046,4.049 9.046,9.044 v 92.304 c 0,4.994 -4.051,9.041 -9.046,9.041" /><g
           transform="translate(189.7588,539.3247)"
           id="g26"><path
             id="path28"
             style="fill:#ffffff;fill-opacity:1;fill-rule:nonzero;stroke:none"
             d="m 0,0 -2.423,7.02 c -0.508,1.594 -0.87,3.04 -1.232,4.449 H -3.76 C -4.086,10.06 -4.485,8.538 -4.956,7.057 L -7.343,0 Z m -7.995,-2.459 -2.532,-7.668 h -3.256 l 8.284,24.385 h 3.8 l 8.32,-24.385 H 3.256 l -2.604,7.668 z" /></g><g
           transform="translate(199.6372,546.708)"
           id="g30"><path
             id="path32"
             style="fill:#ffffff;fill-opacity:1;fill-rule:nonzero;stroke:none"
             d="m 0,0 3.437,-9.807 c 0.58,-1.626 1.05,-3.075 1.413,-4.52 h 0.108 c 0.398,1.445 0.902,2.894 1.482,4.52 L 9.842,0 h 3.329 L 6.294,-17.511 H 3.255 L -3.398,0 Z" /></g><g
           transform="translate(224.3477,538.1333)"
           id="g34"><path
             id="path36"
             style="fill:#ffffff;fill-opacity:1;fill-rule:nonzero;stroke:none"
             d="m 0,0 c -3.474,0.072 -7.414,-0.543 -7.414,-3.944 0,-2.098 1.373,-3.039 2.963,-3.039 2.318,0 3.799,1.448 4.307,2.93 C -0.036,-3.727 0,-3.365 0,-3.039 Z m 3.111,-4.742 c 0,-1.517 0.074,-2.998 0.256,-4.194 H 0.508 L 0.217,-6.73 H 0.11 c -0.939,-1.376 -2.859,-2.604 -5.355,-2.604 -3.546,0 -5.353,2.495 -5.353,5.027 0,4.235 3.763,6.549 10.526,6.514 v 0.361 c 0,1.446 -0.399,4.091 -3.977,4.05 -1.667,0 -3.365,-0.467 -4.597,-1.3 l -0.726,2.137 c 1.45,0.902 3.584,1.517 5.79,1.517 5.394,0 6.693,-3.654 6.693,-7.164 z" /></g><path
           id="path38"
           style="fill:#ffffff;fill-opacity:1;fill-rule:nonzero;stroke:none"
           d="m 232.379,546.708 h 3.184 v -17.511 h -3.184 z m 1.517,3.22 c -1.192,0 -1.989,0.938 -1.989,2.061 0,1.122 0.833,2.025 2.062,2.025 1.232,0 2.028,-0.903 2.028,-2.025 0,-1.123 -0.796,-2.061 -2.06,-2.061 z" /><path
           id="path40"
           style="fill:#ffffff;fill-opacity:1;fill-rule:nonzero;stroke:none"
           d="m 240.663,554.883 h 3.184 v -25.686 h -3.184 z" /><g
           transform="translate(258.1729,538.1333)"
           id="g42"><path
             id="path44"
             style="fill:#ffffff;fill-opacity:1;fill-rule:nonzero;stroke:none"
             d="m 0,0 c -3.474,0.072 -7.419,-0.543 -7.419,-3.944 0,-2.098 1.376,-3.039 2.968,-3.039 2.317,0 3.799,1.448 4.306,2.93 C -0.035,-3.727 0,-3.365 0,-3.039 Z m 3.111,-4.742 c 0,-1.517 0.074,-2.998 0.254,-4.194 H 0.503 L 0.215,-6.73 H 0.108 c -0.941,-1.376 -2.858,-2.604 -5.357,-2.604 -3.542,0 -5.353,2.495 -5.353,5.027 0,4.235 3.764,6.549 10.531,6.514 v 0.361 c 0,1.446 -0.4,4.091 -3.983,4.05 -1.662,0 -3.365,-0.467 -4.591,-1.3 l -0.727,2.137 c 1.448,0.902 3.585,1.517 5.79,1.517 5.39,0 6.693,-3.654 6.693,-7.164 z" /></g><g
           transform="translate(269.3848,536.2134)"
           id="g46"><path
             id="path48"
             style="fill:#ffffff;fill-opacity:1;fill-rule:nonzero;stroke:none"
             d="m 0,0 c 0,-0.394 0.037,-0.793 0.112,-1.155 0.612,-2.206 2.496,-3.727 4.774,-3.727 3.365,0 5.317,2.712 5.317,6.73 0,3.546 -1.808,6.545 -5.208,6.545 -2.17,0 -4.2,-1.518 -4.814,-3.905 C 0.075,4.089 0,3.655 0,3.148 Z M -3.185,18.669 H 0 V 7.708 h 0.075 c 1.12,1.953 3.144,3.184 5.966,3.184 4.343,0 7.382,-3.619 7.382,-8.9 0,-6.295 -3.98,-9.407 -7.886,-9.407 -2.531,0 -4.524,0.978 -5.859,3.293 H -0.399 L -0.58,-7.016 h -2.745 c 0.108,1.196 0.14,2.966 0.14,4.52 z" /></g><path
           id="path50"
           style="fill:#ffffff;fill-opacity:1;fill-rule:nonzero;stroke:none"
           d="m 286.605,554.883 h 3.183 v -25.686 h -3.183 z" /><g
           transform="translate(305.9946,539.6875)"
           id="g52"><path
             id="path54"
             style="fill:#ffffff;fill-opacity:1;fill-rule:nonzero;stroke:none"
             d="M 0,0 C 0.035,1.992 -0.834,5.176 -4.38,5.176 -7.631,5.176 -9.009,2.209 -9.263,0 Z m -9.298,-2.279 c 0.071,-4.306 2.784,-6.077 5.97,-6.077 2.282,0 3.69,0.398 4.849,0.869 L 2.097,-9.73 c -1.118,-0.506 -3.075,-1.123 -5.86,-1.123 -5.353,0 -8.61,3.583 -8.61,8.828 0,5.318 3.146,9.48 8.252,9.48 5.71,0 7.197,-5.032 7.197,-8.248 0,-0.652 -0.037,-1.159 -0.11,-1.521 z" /></g><g
           transform="translate(327.5547,531.1855)"
           id="g56"><path
             id="path58"
             style="fill:#ffffff;fill-opacity:1;fill-rule:nonzero;stroke:none"
             d="m 0,0 c 3.039,0 5.316,2.858 5.316,6.839 0,2.967 -1.48,6.694 -5.244,6.694 -3.728,0 -5.353,-3.474 -5.353,-6.803 0,-3.835 2.17,-6.73 5.246,-6.73 z m -0.107,-2.387 c -4.704,0 -8.395,3.473 -8.395,9.009 0,5.861 3.873,9.298 8.684,9.298 5.027,0 8.427,-3.654 8.427,-8.972 0,-6.513 -4.523,-9.335 -8.681,-9.335 z" /></g><g
           transform="translate(340.002,541.9653)"
           id="g60"><path
             id="path62"
             style="fill:#ffffff;fill-opacity:1;fill-rule:nonzero;stroke:none"
             d="M 0,0 C 0,1.848 -0.041,3.293 -0.15,4.743 H 2.674 L 2.854,1.885 H 2.926 C 3.795,3.51 5.82,5.14 8.713,5.14 c 2.424,0 6.193,-1.449 6.193,-7.454 v -10.454 h -3.189 v 10.096 c 0,2.818 -1.047,5.208 -4.053,5.208 C 5.602,2.536 3.977,1.051 3.396,-0.721 3.252,-1.119 3.18,-1.699 3.18,-2.206 V -12.768 H 0 Z" /></g><g
           transform="translate(371.2188,550.9023)"
           id="g64"><path
             id="path66"
             style="fill:#ffffff;fill-opacity:1;fill-rule:nonzero;stroke:none"
             d="M 0,0 V -4.194 H 4.555 V -6.618 H 0 v -9.444 c 0,-2.169 0.615,-3.401 2.385,-3.401 0.871,0 1.379,0.072 1.849,0.217 l 0.141,-2.422 c -0.611,-0.218 -1.59,-0.436 -2.818,-0.436 -1.489,0 -2.682,0.507 -3.442,1.336 -0.865,0.979 -1.228,2.537 -1.228,4.598 v 9.552 h -2.711 v 2.424 h 2.711 v 3.219 z" /></g><g
           transform="translate(379.1758,554.8828)"
           id="g68"><path
             id="path70"
             style="fill:#ffffff;fill-opacity:1;fill-rule:nonzero;stroke:none"
             d="m 0,0 h 3.184 v -10.924 h 0.07 c 0.506,0.905 1.303,1.734 2.281,2.241 0.942,0.58 2.061,0.906 3.258,0.906 2.35,0 6.109,-1.449 6.109,-7.491 v -10.418 h -3.179 v 10.056 c 0,2.858 -1.051,5.213 -4.055,5.213 -2.061,0 -3.652,-1.45 -4.266,-3.185 -0.181,-0.435 -0.218,-0.905 -0.218,-1.521 V -25.686 H 0 Z" /></g><g
           transform="translate(410.1797,539.6875)"
           id="g72"><path
             id="path74"
             style="fill:#ffffff;fill-opacity:1;fill-rule:nonzero;stroke:none"
             d="M 0,0 C 0.031,1.992 -0.834,5.176 -4.379,5.176 -7.633,5.176 -9.014,2.209 -9.264,0 Z m -9.299,-2.279 c 0.072,-4.306 2.785,-6.077 5.969,-6.077 2.279,0 3.691,0.398 4.851,0.869 L 2.098,-9.73 c -1.123,-0.506 -3.077,-1.123 -5.864,-1.123 -5.351,0 -8.609,3.583 -8.609,8.828 0,5.318 3.148,9.48 8.25,9.48 5.715,0 7.201,-5.032 7.201,-8.248 0,-0.652 -0.037,-1.159 -0.109,-1.521 z" /></g><path
           id="path76"
           style="fill:#ffffff;fill-opacity:1;fill-rule:nonzero;stroke:none"
           d="m 424.502,546.708 h 3.184 v -17.511 h -3.184 z m 1.523,3.22 c -1.197,0 -1.994,0.938 -1.994,2.061 0,1.122 0.832,2.025 2.065,2.025 1.228,0 2.025,-0.903 2.025,-2.025 0,-1.123 -0.797,-2.061 -2.066,-2.061 z" /><g
           transform="translate(436.043,541.5352)"
           id="g78"><path
             id="path80"
             style="fill:#ffffff;fill-opacity:1;fill-rule:nonzero;stroke:none"
             d="m 0,0 c 0.686,-0.182 1.594,-0.254 2.605,-0.254 3.834,0 6.114,1.879 6.114,5.172 0,3.257 -2.28,4.811 -5.752,4.811 C 1.594,9.729 0.545,9.587 0,9.476 Z m -3.148,11.722 c 1.517,0.286 3.509,0.506 6.043,0.506 3.109,0 5.39,-0.724 6.834,-2.029 C 11.068,9.044 11.902,7.27 11.902,5.1 11.902,2.894 11.25,1.155 9.982,-0.109 8.32,-1.884 5.605,-2.786 2.531,-2.786 1.594,-2.786 0.725,-2.75 0,-2.572 v -9.766 h -3.148 z" /></g><g
           transform="translate(451.6719,554.8828)"
           id="g82"><path
             id="path84"
             style="fill:#ffffff;fill-opacity:1;fill-rule:nonzero;stroke:none"
             d="m 0,0 h 3.186 v -10.924 h 0.072 c 0.506,0.905 1.303,1.734 2.277,2.241 0.944,0.58 2.067,0.906 3.258,0.906 2.352,0 6.113,-1.449 6.113,-7.491 v -10.418 h -3.181 v 10.056 c 0,2.858 -1.051,5.213 -4.055,5.213 -2.059,0 -3.65,-1.45 -4.268,-3.185 -0.181,-0.435 -0.216,-0.905 -0.216,-1.521 V -25.686 H 0 Z" /></g><g
           transform="translate(478.8086,531.1855)"
           id="g86"><path
             id="path88"
             style="fill:#ffffff;fill-opacity:1;fill-rule:nonzero;stroke:none"
             d="m 0,0 c 3.033,0 5.316,2.858 5.316,6.839 0,2.967 -1.482,6.694 -5.248,6.694 -3.724,0 -5.355,-3.474 -5.355,-6.803 0,-3.835 2.17,-6.73 5.246,-6.73 z m -0.111,-2.387 c -4.703,0 -8.395,3.473 -8.395,9.009 0,5.861 3.873,9.298 8.686,9.298 5.027,0 8.425,-3.654 8.425,-8.972 0,-6.513 -4.521,-9.335 -8.679,-9.335 z" /></g><g
           transform="translate(491.25,541.9653)"
           id="g90"><path
             id="path92"
             style="fill:#ffffff;fill-opacity:1;fill-rule:nonzero;stroke:none"
             d="M 0,0 C 0,1.848 -0.037,3.293 -0.145,4.743 H 2.678 L 2.857,1.885 H 2.932 C 3.801,3.51 5.826,5.14 8.719,5.14 c 2.424,0 6.183,-1.449 6.183,-7.454 v -10.454 h -3.179 v 10.096 c 0,2.818 -1.051,5.208 -4.055,5.208 C 5.607,2.536 3.98,1.051 3.402,-0.721 3.256,-1.119 3.18,-1.699 3.18,-2.206 V -12.768 H 0 Z" /></g><g
           transform="translate(522.2539,539.6875)"
           id="g94"><path
             id="path96"
             style="fill:#ffffff;fill-opacity:1;fill-rule:nonzero;stroke:none"
             d="M 0,0 C 0.035,1.992 -0.834,5.176 -4.379,5.176 -7.637,5.176 -9.01,2.209 -9.264,0 Z m -9.299,-2.279 c 0.072,-4.306 2.787,-6.077 5.971,-6.077 2.277,0 3.689,0.398 4.846,0.869 l 0.58,-2.243 c -1.125,-0.506 -3.077,-1.123 -5.862,-1.123 -5.353,0 -8.611,3.583 -8.611,8.828 0,5.318 3.148,9.48 8.248,9.48 5.717,0 7.201,-5.032 7.201,-8.248 0,-0.652 -0.035,-1.159 -0.107,-1.521 z" /></g><g
           transform="translate(201.8433,502.2979)"
           id="g98"><path
             id="path100"
             style="fill:#ffffff;fill-opacity:1;fill-rule:nonzero;stroke:none"
             d="M 0,0 C 0.724,-2.818 1.505,-5.745 2.51,-8.907 L 8.291,-25.649 H -8.162 L -2.46,-8.798 C -1.592,-6.067 -0.769,-3.115 0,0 m -5.09,10.382 -21.451,-63.144 h 9.823 l 6.405,19.389 h 20.77 l 6.585,-19.389 H 27.137 L 5.593,10.382 Z" /></g><g
           transform="translate(254.3589,488.4023)"
           id="g102"><path
             id="path104"
             style="fill:#ffffff;fill-opacity:1;fill-rule:nonzero;stroke:none"
             d="m 0,0 c 8.516,0 12.328,-7.889 12.328,-15.706 0,-10.085 -4.863,-16.347 -12.69,-16.347 -5.344,0 -9.968,3.636 -11.255,8.864 -0.22,0.811 -0.341,1.883 -0.341,3.093 v 7.683 c 0,0.695 0.156,1.539 0.305,2.358 0.047,0.261 0.098,0.522 0.137,0.776 C -10.091,-3.813 -5.362,0 0,0 m 2.38,7.908 c -6.506,0 -11.719,-2.51 -15.188,-7.285 l -0.38,6.281 h -8.739 l 0.052,-0.803 c 0.256,-3.913 0.366,-8.219 0.366,-14.403 v -48.67 h 9.551 v 22.713 c 2.964,-3.547 7.698,-5.612 13.06,-5.612 5.585,0 10.728,2.189 14.477,6.155 4.184,4.423 6.393,10.78 6.393,18.376 0,6.712 -1.918,12.515 -5.552,16.778 -3.558,4.173 -8.542,6.47 -14.04,6.47" /></g><g
           transform="translate(303.5571,488.4023)"
           id="g106"><path
             id="path108"
             style="fill:#ffffff;fill-opacity:1;fill-rule:nonzero;stroke:none"
             d="m 0,0 c 8.513,0 12.324,-7.889 12.324,-15.706 0,-10.085 -4.866,-16.347 -12.69,-16.347 -5.342,0 -9.969,3.636 -11.255,8.864 -0.221,0.811 -0.336,1.883 -0.336,3.093 v 7.683 c 0,0.699 0.151,1.546 0.305,2.366 0.047,0.256 0.093,0.514 0.137,0.768 C -10.095,-3.813 -5.364,0 0,0 m 2.377,7.908 c -6.506,0 -11.718,-2.51 -15.19,-7.285 l -0.379,6.281 h -8.737 l 0.05,-0.803 c 0.257,-3.916 0.366,-8.219 0.366,-14.403 v -48.67 h 9.556 v 22.713 c 2.962,-3.547 7.693,-5.612 13.054,-5.612 5.586,0 10.729,2.189 14.483,6.155 4.179,4.423 6.388,10.78 6.388,18.376 0,6.712 -1.92,12.515 -5.552,16.778 -3.557,4.173 -8.541,6.47 -14.039,6.47" /></g><g
           transform="translate(367.5645,485.9253)"
           id="g110"><path
             id="path112"
             style="fill:#ffffff;fill-opacity:1;fill-rule:nonzero;stroke:none"
             d="m 0,0 c -8.916,3.452 -11.773,6.168 -11.773,11.186 0,4.223 3.357,8.483 10.859,8.483 6.189,0 10.15,-2.151 11.215,-2.815 l 0.81,-0.5 2.696,7.973 -0.534,0.312 c -1.599,0.938 -6.16,3.122 -13.912,3.122 -12.183,0 -20.691,-7.194 -20.691,-17.489 0,-8.302 5.328,-14.104 16.769,-18.263 8.106,-3.031 11.124,-6.135 11.124,-11.457 0,-6.024 -4.655,-9.762 -12.143,-9.762 -4.877,0 -9.897,1.423 -13.77,3.904 l -0.828,0.533 -2.564,-8.158 0.471,-0.311 c 3.605,-2.409 10.394,-4.152 16.144,-4.152 16.42,0 22.242,10.013 22.242,18.587 C 16.115,-9.969 11.447,-4.517 0,0" /></g><g
           transform="translate(400.877,506.1841)"
           id="g114"><path
             id="path116"
             style="fill:#ffffff;fill-opacity:1;fill-rule:nonzero;stroke:none"
             d="m 0,0 -9.371,-2.94 v -7.937 h -6.858 v -7.637 h 6.858 v -23.388 c 0,-5.655 1.082,-9.618 3.308,-12.12 2.135,-2.34 5.418,-3.63 9.243,-3.63 3.613,0 6.177,0.714 7.384,1.141 l 0.536,0.189 -0.457,7.65 -0.916,-0.283 C 8.52,-49.325 7.277,-49.469 5.283,-49.469 1.58,-49.469 0,-47.125 0,-41.626 v 23.112 h 11.523 v 7.637 l -11.523,0 z" /></g><g
           transform="translate(435.8008,488.7686)"
           id="g118"><path
             id="path120"
             style="fill:#ffffff;fill-opacity:1;fill-rule:nonzero;stroke:none"
             d="m 0,0 c 8.596,0 12.506,-8.378 12.506,-16.167 0,-9.576 -5.338,-16.527 -12.688,-16.527 h -0.091 c -7.247,0 -12.506,6.834 -12.506,16.253 C -12.779,-8.259 -8.828,0 0,0 m 0.275,7.542 c -13.367,0 -22.701,-9.976 -22.701,-24.255 0,-13.852 9.033,-23.524 21.969,-23.524 h 0.09 c 10.935,0 22.701,7.619 22.701,24.346 0,6.803 -2.104,12.645 -6.088,16.898 C 12.238,5.281 6.715,7.542 0.275,7.542" /></g><g
           transform="translate(487.3965,495.8687)"
           id="g122"><path
             id="path124"
             style="fill:#ffffff;fill-opacity:1;fill-rule:nonzero;stroke:none"
             d="m 0,0 -0.572,0.145 c -0.842,0.21 -1.53,0.297 -2.377,0.297 -4.998,0 -9.483,-2.942 -11.979,-7.69 l -0.281,6.686 h -8.572 l 0.054,-0.804 c 0.254,-3.782 0.362,-8.028 0.362,-13.758 l -0.09,-31.209 h 9.555 v 24.349 c 0,1.325 0.091,2.579 0.261,3.702 1.08,5.85 5.026,9.629 10.053,9.629 0.979,0 1.748,-0.08 2.565,-0.16 L 0,-8.919 Z" /></g><g
           transform="translate(508.2383,489.1338)"
           id="g126"><path
             id="path128"
             style="fill:#ffffff;fill-opacity:1;fill-rule:nonzero;stroke:none"
             d="m 0,0 c 2.91,0 5.271,-0.901 7.014,-2.676 2.748,-2.796 3.23,-6.915 3.289,-8.893 H -11.482 C -10.598,-6.052 -7.146,0 0,0 m 0.639,7.267 c -12.719,0 -21.604,-10.161 -21.604,-24.711 0,-14.012 8.838,-23.067 22.516,-23.067 7.193,0 12.197,1.579 15.127,2.902 l 0.574,0.26 -1.834,7.118 -0.799,-0.322 c -2.603,-1.058 -6.062,-2.141 -11.971,-2.141 -4.15,0 -13.72,1.369 -14.308,13.852 l 30.838,-0.091 0.123,0.609 c 0.195,0.97 0.289,2.278 0.289,3.988 0,9.965 -4.963,21.603 -18.951,21.603" /></g><g
           transform="translate(561.7402,232.6816)"
           id="g130"><path
             id="path132"
             style="fill:#373535;fill-opacity:1;fill-rule:nonzero;stroke:none"
             d="M 0,0 C 0,-12.486 -10.121,-22.612 -22.605,-22.612 H -488.87 c -12.485,0 -22.61,10.126 -22.61,22.612 v 122.089 c 0,12.485 10.125,22.61 22.61,22.61 H -22.605 C -10.121,144.699 0,134.574 0,122.089 Z" /></g><path
           id="path134"
           style="fill:#ffffff;fill-opacity:1;fill-rule:nonzero;stroke:none"
           d="M 140.539,259.996 H 94.992 v 68.085 h 45.547 z m -22.773,-14.978 c -3.326,0 -6.021,2.695 -6.021,6.024 0,3.325 2.695,6.021 6.021,6.021 3.328,0 6.024,-2.696 6.024,-6.021 0,-3.329 -2.696,-6.024 -6.024,-6.024 m 20.831,103.75 H 96.934 c -4.992,0 -9.041,-4.046 -9.041,-9.041 v -92.303 c 0,-4.996 4.049,-9.045 9.041,-9.045 h 41.663 c 4.995,0 9.046,4.049 9.046,9.045 v 92.303 c 0,4.995 -4.051,9.041 -9.046,9.041" /><g
           transform="translate(189.7588,334.7754)"
           id="g136"><path
             id="path138"
             style="fill:#ffffff;fill-opacity:1;fill-rule:nonzero;stroke:none"
             d="m 0,0 -2.423,7.02 c -0.508,1.593 -0.87,3.039 -1.232,4.449 H -3.76 C -4.086,10.059 -4.485,8.537 -4.956,7.057 L -7.343,0 Z m -7.995,-2.459 -2.532,-7.669 h -3.256 l 8.284,24.386 h 3.8 l 8.32,-24.386 H 3.256 l -2.604,7.669 z" /></g><g
           transform="translate(199.6372,342.1582)"
           id="g140"><path
             id="path142"
             style="fill:#ffffff;fill-opacity:1;fill-rule:nonzero;stroke:none"
             d="m 0,0 3.437,-9.807 c 0.58,-1.626 1.05,-3.075 1.413,-4.52 h 0.108 c 0.398,1.445 0.902,2.894 1.482,4.52 L 9.842,0 h 3.329 L 6.294,-17.511 H 3.255 L -3.398,0 Z" /></g><g
           transform="translate(224.3477,333.584)"
           id="g144"><path
             id="path146"
             style="fill:#ffffff;fill-opacity:1;fill-rule:nonzero;stroke:none"
             d="m 0,0 c -3.474,0.071 -7.414,-0.543 -7.414,-3.945 0,-2.097 1.373,-3.039 2.963,-3.039 2.318,0 3.799,1.449 4.307,2.93 C -0.036,-3.727 0,-3.365 0,-3.039 Z m 3.111,-4.742 c 0,-1.518 0.074,-2.998 0.256,-4.195 H 0.508 L 0.217,-6.73 H 0.11 c -0.939,-1.377 -2.859,-2.605 -5.355,-2.605 -3.546,0 -5.353,2.495 -5.353,5.027 0,4.236 3.763,6.55 10.526,6.514 v 0.362 c 0,1.446 -0.399,4.09 -3.977,4.049 -1.667,0 -3.365,-0.467 -4.597,-1.3 l -0.726,2.138 c 1.45,0.902 3.584,1.517 5.79,1.517 5.394,0 6.693,-3.655 6.693,-7.165 z" /></g><path
           id="path148"
           style="fill:#ffffff;fill-opacity:1;fill-rule:nonzero;stroke:none"
           d="m 232.379,342.158 h 3.184 v -17.511 h -3.184 z m 1.517,3.22 c -1.192,0 -1.989,0.938 -1.989,2.061 0,1.123 0.833,2.025 2.062,2.025 1.232,0 2.028,-0.902 2.028,-2.025 0,-1.123 -0.796,-2.061 -2.06,-2.061 z" /><path
           id="path150"
           style="fill:#ffffff;fill-opacity:1;fill-rule:nonzero;stroke:none"
           d="m 240.663,350.333 h 3.184 v -25.686 h -3.184 z" /><g
           transform="translate(258.1729,333.584)"
           id="g152"><path
             id="path154"
             style="fill:#ffffff;fill-opacity:1;fill-rule:nonzero;stroke:none"
             d="m 0,0 c -3.474,0.071 -7.419,-0.543 -7.419,-3.945 0,-2.097 1.376,-3.039 2.968,-3.039 2.317,0 3.799,1.449 4.306,2.93 C -0.035,-3.727 0,-3.365 0,-3.039 Z m 3.111,-4.742 c 0,-1.518 0.074,-2.998 0.254,-4.195 H 0.503 L 0.215,-6.73 H 0.108 c -0.941,-1.377 -2.858,-2.605 -5.357,-2.605 -3.542,0 -5.353,2.495 -5.353,5.027 0,4.236 3.764,6.55 10.531,6.514 v 0.362 c 0,1.446 -0.4,4.09 -3.983,4.049 -1.662,0 -3.365,-0.467 -4.591,-1.3 l -0.727,2.138 c 1.448,0.902 3.585,1.517 5.79,1.517 5.39,0 6.693,-3.655 6.693,-7.165 z" /></g><g
           transform="translate(269.3848,331.6641)"
           id="g156"><path
             id="path158"
             style="fill:#ffffff;fill-opacity:1;fill-rule:nonzero;stroke:none"
             d="m 0,0 c 0,-0.395 0.037,-0.793 0.112,-1.156 0.612,-2.205 2.496,-3.727 4.774,-3.727 3.365,0 5.317,2.713 5.317,6.731 0,3.545 -1.808,6.545 -5.208,6.545 -2.17,0 -4.2,-1.518 -4.814,-3.905 C 0.075,4.089 0,3.654 0,3.148 Z M -3.185,18.669 H 0 V 7.708 h 0.075 c 1.12,1.952 3.144,3.184 5.966,3.184 4.343,0 7.382,-3.619 7.382,-8.901 0,-6.295 -3.98,-9.406 -7.886,-9.406 -2.531,0 -4.524,0.977 -5.859,3.293 H -0.399 L -0.58,-7.017 h -2.745 c 0.108,1.197 0.14,2.966 0.14,4.521 z" /></g><path
           id="path160"
           style="fill:#ffffff;fill-opacity:1;fill-rule:nonzero;stroke:none"
           d="m 286.605,350.333 h 3.183 v -25.686 h -3.183 z" /><g
           transform="translate(305.9946,335.1377)"
           id="g162"><path
             id="path164"
             style="fill:#ffffff;fill-opacity:1;fill-rule:nonzero;stroke:none"
             d="M 0,0 C 0.035,1.991 -0.834,5.177 -4.38,5.177 -7.631,5.177 -9.009,2.21 -9.263,0 Z m -9.298,-2.278 c 0.071,-4.307 2.784,-6.078 5.97,-6.078 2.282,0 3.69,0.398 4.849,0.869 l 0.576,-2.242 c -1.118,-0.507 -3.075,-1.124 -5.86,-1.124 -5.353,0 -8.61,3.582 -8.61,8.828 0,5.318 3.146,9.479 8.252,9.479 5.71,0 7.197,-5.031 7.197,-8.247 0,-0.652 -0.037,-1.159 -0.11,-1.521 z" /></g><g
           transform="translate(327.5547,326.6357)"
           id="g166"><path
             id="path168"
             style="fill:#ffffff;fill-opacity:1;fill-rule:nonzero;stroke:none"
             d="m 0,0 c 3.039,0 5.316,2.858 5.316,6.839 0,2.967 -1.48,6.694 -5.244,6.694 -3.728,0 -5.353,-3.473 -5.353,-6.803 0,-3.835 2.17,-6.73 5.246,-6.73 z m -0.107,-2.387 c -4.704,0 -8.395,3.474 -8.395,9.009 0,5.861 3.873,9.298 8.684,9.298 5.027,0 8.427,-3.654 8.427,-8.972 0,-6.513 -4.523,-9.335 -8.681,-9.335 z" /></g><g
           transform="translate(340.002,337.416)"
           id="g170"><path
             id="path172"
             style="fill:#ffffff;fill-opacity:1;fill-rule:nonzero;stroke:none"
             d="M 0,0 C 0,1.848 -0.041,3.293 -0.15,4.742 H 2.674 L 2.854,1.885 H 2.926 C 3.795,3.51 5.82,5.14 8.713,5.14 c 2.424,0 6.193,-1.449 6.193,-7.454 v -10.455 h -3.189 v 10.096 c 0,2.818 -1.047,5.208 -4.053,5.208 C 5.602,2.535 3.977,1.051 3.396,-0.721 3.252,-1.119 3.18,-1.699 3.18,-2.206 V -12.769 H 0 Z" /></g><g
           transform="translate(371.2188,346.3525)"
           id="g174"><path
             id="path176"
             style="fill:#ffffff;fill-opacity:1;fill-rule:nonzero;stroke:none"
             d="M 0,0 V -4.194 H 4.555 V -6.618 H 0 v -9.444 c 0,-2.169 0.615,-3.401 2.385,-3.401 0.871,0 1.379,0.071 1.849,0.218 l 0.141,-2.424 c -0.611,-0.217 -1.59,-0.435 -2.818,-0.435 -1.489,0 -2.682,0.507 -3.442,1.336 -0.865,0.98 -1.228,2.537 -1.228,4.598 v 9.552 h -2.711 v 2.424 h 2.711 v 3.219 z" /></g><g
           transform="translate(379.1758,350.333)"
           id="g178"><path
             id="path180"
             style="fill:#ffffff;fill-opacity:1;fill-rule:nonzero;stroke:none"
             d="m 0,0 h 3.184 v -10.925 h 0.07 c 0.506,0.906 1.303,1.735 2.281,2.242 0.942,0.58 2.061,0.906 3.258,0.906 2.35,0 6.109,-1.449 6.109,-7.491 v -10.418 h -3.179 v 10.056 c 0,2.858 -1.051,5.213 -4.055,5.213 -2.061,0 -3.652,-1.449 -4.266,-3.185 -0.181,-0.434 -0.218,-0.905 -0.218,-1.521 V -25.686 H 0 Z" /></g><g
           transform="translate(410.1797,335.1377)"
           id="g182"><path
             id="path184"
             style="fill:#ffffff;fill-opacity:1;fill-rule:nonzero;stroke:none"
             d="M 0,0 C 0.031,1.991 -0.834,5.177 -4.379,5.177 -7.633,5.177 -9.014,2.21 -9.264,0 Z m -9.299,-2.278 c 0.072,-4.307 2.785,-6.078 5.969,-6.078 2.279,0 3.691,0.398 4.851,0.869 l 0.577,-2.242 c -1.123,-0.507 -3.077,-1.124 -5.864,-1.124 -5.351,0 -8.609,3.582 -8.609,8.828 0,5.318 3.148,9.479 8.25,9.479 5.715,0 7.201,-5.031 7.201,-8.247 0,-0.652 -0.037,-1.159 -0.109,-1.521 z" /></g><path
           id="path186"
           style="fill:#ffffff;fill-opacity:1;fill-rule:nonzero;stroke:none"
           d="m 424.502,342.158 h 3.184 v -17.511 h -3.184 z m 1.523,3.22 c -1.197,0 -1.994,0.938 -1.994,2.061 0,1.123 0.832,2.025 2.065,2.025 1.228,0 2.025,-0.902 2.025,-2.025 0,-1.123 -0.797,-2.061 -2.066,-2.061 z" /><g
           transform="translate(436.043,336.9854)"
           id="g188"><path
             id="path190"
             style="fill:#ffffff;fill-opacity:1;fill-rule:nonzero;stroke:none"
             d="m 0,0 c 0.686,-0.182 1.594,-0.254 2.605,-0.254 3.834,0 6.114,1.88 6.114,5.173 0,3.256 -2.28,4.81 -5.752,4.81 C 1.594,9.729 0.545,9.587 0,9.476 Z m -3.148,11.722 c 1.517,0.286 3.509,0.506 6.043,0.506 3.109,0 5.39,-0.723 6.834,-2.029 C 11.068,9.044 11.902,7.27 11.902,5.1 11.902,2.894 11.25,1.155 9.982,-0.108 8.32,-1.884 5.605,-2.786 2.531,-2.786 1.594,-2.786 0.725,-2.749 0,-2.572 v -9.766 h -3.148 z" /></g><g
           transform="translate(451.6719,350.333)"
           id="g192"><path
             id="path194"
             style="fill:#ffffff;fill-opacity:1;fill-rule:nonzero;stroke:none"
             d="m 0,0 h 3.186 v -10.925 h 0.072 c 0.506,0.906 1.303,1.735 2.277,2.242 0.944,0.58 2.067,0.906 3.258,0.906 2.352,0 6.113,-1.449 6.113,-7.491 v -10.418 h -3.181 v 10.056 c 0,2.858 -1.051,5.213 -4.055,5.213 -2.059,0 -3.65,-1.449 -4.268,-3.185 -0.181,-0.434 -0.216,-0.905 -0.216,-1.521 V -25.686 H 0 Z" /></g><g
           transform="translate(478.8086,326.6357)"
           id="g196"><path
             id="path198"
             style="fill:#ffffff;fill-opacity:1;fill-rule:nonzero;stroke:none"
             d="m 0,0 c 3.033,0 5.316,2.858 5.316,6.839 0,2.967 -1.482,6.694 -5.248,6.694 -3.724,0 -5.355,-3.473 -5.355,-6.803 0,-3.835 2.17,-6.73 5.246,-6.73 z m -0.111,-2.387 c -4.703,0 -8.395,3.474 -8.395,9.009 0,5.861 3.873,9.298 8.686,9.298 5.027,0 8.425,-3.654 8.425,-8.972 0,-6.513 -4.521,-9.335 -8.679,-9.335 z" /></g><g
           transform="translate(491.25,337.416)"
           id="g200"><path
             id="path202"
             style="fill:#ffffff;fill-opacity:1;fill-rule:nonzero;stroke:none"
             d="M 0,0 C 0,1.848 -0.037,3.293 -0.145,4.742 H 2.678 L 2.857,1.885 H 2.932 C 3.801,3.51 5.826,5.14 8.719,5.14 c 2.424,0 6.183,-1.449 6.183,-7.454 v -10.455 h -3.179 v 10.096 c 0,2.818 -1.051,5.208 -4.055,5.208 C 5.607,2.535 3.98,1.051 3.402,-0.721 3.256,-1.119 3.18,-1.699 3.18,-2.206 V -12.769 H 0 Z" /></g><g
           transform="translate(522.2539,335.1377)"
           id="g204"><path
             id="path206"
             style="fill:#ffffff;fill-opacity:1;fill-rule:nonzero;stroke:none"
             d="M 0,0 C 0.035,1.991 -0.834,5.177 -4.379,5.177 -7.637,5.177 -9.01,2.21 -9.264,0 Z m -9.299,-2.278 c 0.072,-4.307 2.787,-6.078 5.971,-6.078 2.277,0 3.689,0.398 4.846,0.869 l 0.58,-2.242 c -1.125,-0.507 -3.077,-1.124 -5.862,-1.124 -5.353,0 -8.611,3.582 -8.611,8.828 0,5.318 3.148,9.479 8.248,9.479 5.717,0 7.201,-5.031 7.201,-8.247 0,-0.652 -0.035,-1.159 -0.107,-1.521 z" /></g><g
           transform="translate(201.8433,297.748)"
           id="g208"><path
             id="path210"
             style="fill:#ffffff;fill-opacity:1;fill-rule:nonzero;stroke:none"
             d="M 0,0 C 0.724,-2.818 1.505,-5.745 2.51,-8.907 L 8.291,-25.649 H -8.162 l 5.702,16.85 C -1.592,-6.066 -0.769,-3.115 0,0 m -5.09,10.382 -21.451,-63.144 h 9.823 l 6.405,19.389 h 20.77 l 6.585,-19.389 H 27.137 L 5.593,10.382 Z" /></g><g
           transform="translate(254.3589,283.8525)"
           id="g212"><path
             id="path214"
             style="fill:#ffffff;fill-opacity:1;fill-rule:nonzero;stroke:none"
             d="m 0,0 c 8.516,0 12.328,-7.89 12.328,-15.706 0,-10.084 -4.863,-16.348 -12.69,-16.348 -5.344,0 -9.968,3.637 -11.255,8.865 -0.22,0.811 -0.341,1.883 -0.341,3.093 v 7.683 c 0,0.695 0.156,1.539 0.305,2.357 0.047,0.262 0.098,0.523 0.137,0.777 C -10.091,-3.813 -5.362,0 0,0 m 2.38,7.908 c -6.506,0 -11.719,-2.511 -15.188,-7.285 l -0.38,6.281 h -8.739 l 0.052,-0.803 c 0.256,-3.913 0.366,-8.219 0.366,-14.403 v -48.67 h 9.551 v 22.713 c 2.964,-3.547 7.698,-5.611 13.06,-5.611 5.585,0 10.728,2.187 14.477,6.154 4.184,4.423 6.393,10.78 6.393,18.376 0,6.712 -1.918,12.515 -5.552,16.778 -3.558,4.173 -8.542,6.47 -14.04,6.47" /></g><g
           transform="translate(303.5571,283.8525)"
           id="g216"><path
             id="path218"
             style="fill:#ffffff;fill-opacity:1;fill-rule:nonzero;stroke:none"
             d="m 0,0 c 8.513,0 12.324,-7.89 12.324,-15.706 0,-10.084 -4.866,-16.348 -12.69,-16.348 -5.342,0 -9.969,3.637 -11.255,8.865 -0.221,0.811 -0.336,1.883 -0.336,3.093 v 7.683 c 0,0.699 0.151,1.547 0.305,2.365 0.047,0.258 0.093,0.515 0.137,0.769 C -10.095,-3.813 -5.364,0 0,0 m 2.377,7.908 c -6.506,0 -11.718,-2.511 -15.19,-7.285 l -0.379,6.281 h -8.737 l 0.05,-0.803 c 0.257,-3.916 0.366,-8.219 0.366,-14.403 v -48.67 h 9.556 v 22.713 c 2.962,-3.547 7.693,-5.611 13.054,-5.611 5.586,0 10.729,2.187 14.483,6.154 4.179,4.423 6.388,10.78 6.388,18.376 0,6.712 -1.92,12.515 -5.552,16.778 -3.557,4.173 -8.541,6.47 -14.039,6.47" /></g><g
           transform="translate(367.5645,281.375)"
           id="g220"><path
             id="path222"
             style="fill:#ffffff;fill-opacity:1;fill-rule:nonzero;stroke:none"
             d="m 0,0 c -8.916,3.453 -11.773,6.169 -11.773,11.186 0,4.224 3.357,8.484 10.859,8.484 6.189,0 10.15,-2.152 11.215,-2.815 l 0.81,-0.5 2.696,7.973 -0.534,0.312 c -1.599,0.938 -6.16,3.122 -13.912,3.122 -12.183,0 -20.691,-7.194 -20.691,-17.489 0,-8.302 5.328,-14.105 16.769,-18.263 8.106,-3.031 11.124,-6.136 11.124,-11.457 0,-6.024 -4.655,-9.762 -12.143,-9.762 -4.877,0 -9.897,1.423 -13.77,3.904 l -0.828,0.533 -2.564,-8.158 0.471,-0.312 c 3.605,-2.408 10.394,-4.151 16.144,-4.151 16.42,0 22.242,10.012 22.242,18.586 C 16.115,-9.969 11.447,-4.517 0,0" /></g><g
           transform="translate(400.877,301.6348)"
           id="g224"><path
             id="path226"
             style="fill:#ffffff;fill-opacity:1;fill-rule:nonzero;stroke:none"
             d="m 0,0 -9.371,-2.941 v -7.937 h -6.858 v -7.636 h 6.858 v -23.388 c 0,-5.655 1.082,-9.618 3.308,-12.121 2.135,-2.34 5.418,-3.629 9.243,-3.629 3.613,0 6.177,0.713 7.384,1.14 l 0.536,0.19 -0.457,7.649 -0.916,-0.282 C 8.52,-49.325 7.277,-49.469 5.283,-49.469 1.58,-49.469 0,-47.125 0,-41.627 v 23.113 h 11.523 v 7.636 l -11.523,0 z" /></g><g
           transform="translate(435.8008,284.2188)"
           id="g228"><path
             id="path230"
             style="fill:#ffffff;fill-opacity:1;fill-rule:nonzero;stroke:none"
             d="m 0,0 c 8.596,0 12.506,-8.378 12.506,-16.166 0,-9.577 -5.338,-16.528 -12.688,-16.528 h -0.091 c -7.247,0 -12.506,6.835 -12.506,16.253 C -12.779,-8.259 -8.828,0 0,0 m 0.275,7.542 c -13.367,0 -22.701,-9.976 -22.701,-24.255 0,-13.851 9.033,-23.523 21.969,-23.523 h 0.09 c 10.935,0 22.701,7.618 22.701,24.345 0,6.803 -2.104,12.645 -6.088,16.899 C 12.238,5.281 6.715,7.542 0.275,7.542" /></g><g
           transform="translate(487.3965,291.3184)"
           id="g232"><path
             id="path234"
             style="fill:#ffffff;fill-opacity:1;fill-rule:nonzero;stroke:none"
             d="m 0,0 -0.572,0.146 c -0.842,0.209 -1.53,0.296 -2.377,0.296 -4.998,0 -9.483,-2.942 -11.979,-7.69 l -0.281,6.686 h -8.572 l 0.054,-0.803 c 0.254,-3.782 0.362,-8.028 0.362,-13.758 l -0.09,-31.209 h 9.555 v 24.349 c 0,1.325 0.091,2.579 0.261,3.702 1.08,5.849 5.026,9.629 10.053,9.629 0.979,0 1.748,-0.08 2.565,-0.161 L 0,-8.918 Z" /></g><g
           transform="translate(508.2383,284.584)"
           id="g236"><path
             id="path238"
             style="fill:#ffffff;fill-opacity:1;fill-rule:nonzero;stroke:none"
             d="m 0,0 c 2.91,0 5.271,-0.9 7.014,-2.676 2.748,-2.797 3.23,-6.916 3.289,-8.892 H -11.482 C -10.598,-6.052 -7.146,0 0,0 m 0.639,7.268 c -12.719,0 -21.604,-10.162 -21.604,-24.711 0,-14.012 8.838,-23.068 22.516,-23.068 7.193,0 12.197,1.579 15.127,2.902 l 0.574,0.259 -1.834,7.119 -0.799,-0.322 c -2.603,-1.058 -6.062,-2.14 -11.971,-2.14 -4.15,0 -13.72,1.369 -14.308,13.851 l 30.838,-0.092 0.123,0.61 c 0.195,0.97 0.289,2.278 0.289,3.988 0,9.965 -4.963,21.604 -18.951,21.604" /></g></g></g></g></svg>